{"title":"Transformers Revenge of the Fallen (2009) 1080p BluRay {Dual Aud","uid":9729916,"size":3957214069,"categoryP":"video","categoryS":"hd___movies","magnet":"?xt=urn:btih:d0bbba51fd401357057d9dd0d1dba7e52c4f35a9&amp;dn=Transformers+Revenge+of+the+Fallen+%282009%29+1080p+BluRay+%7BDual+Aud&amp;tr=udp%3A%2F%2Ftracker.openbittorrent.com%3A80&amp;tr=udp%3A%2F%2Fopen.demonii.com%3A1337&amp;tr=udp%3A%2F%2Ftracker.coppersurfer.tk%3A6969&amp;tr=udp%3A%2F%2Fexodus.desync.com%3A6969","seeders":4,"leechers":8,"uploader":"SaNRiM","files":-1,"time":1394360103,"description":"Storyline\n\nA youth chooses manhood. The week Sam Witwicky starts college, the Decepticons make trouble in Shanghai. A presidential envoy believes it's because the Autobots are around; he wants them gone. He's wrong: the Decepticons need access to Sam's mind to see some glyphs imprinted there that will lead them to a fragile object that, when inserted in an alien machine hidden in Egypt for centuries, will give them the power to blow out the sun. Sam, his girlfriend Mikaela Banes, and Sam's parents are in danger. Optimus Prime and Bumblebee are Sam's principal protectors. If one of them goes down, what becomes of Sam?\n\n\n\nTorrent Info\n\nGeneral\n\nUnique ID : 178012269818676020661305813588882533095 (0x85EBEA84F427457F80098C030A88AAE7)\nComplete name : Transformers Revenge of the Fallen (2009) 1080p BluRay {Dual Audio} {6Ch.} [Hindi DD 5.1 -English DD 5.1] ~SaNRiM~.mkv\nFormat : Matroska\nFormat version : Version 4 / Version 2\nFile size : 3.68 GiB\nDuration : 2h 29mn\nOverall bit rate : 3 511 Kbps\nEncoded date : UTC 2014-03-08 08:30:09\nWriting library : libebml v1.3.0 + libmatroska v1.4.1\n\n\nVideo\n\nID : 1\nFormat : AVC\nFormat/Info : Advanced Video Codec\nFormat profile : &lt;a class=&quot;__cf_email__&quot; href=&quot;/cdn-cgi/l/email-protection&quot; data-cfemail=&quot;baf2d3ddd2faf68e948a&quot;&gt;[email&amp;#160;protected]&lt;/a&gt;&lt;script cf-hash='f9e31' type=&quot;text/javascript&quot;&gt;\n/* &lt;![CDATA[ */!function(){try{var t=&quot;currentScript&quot;in document?document.currentScript:function(){for(var t=document.getElementsByTagName(&quot;script&quot;),e=t.length;e--;)if(t[e].getAttribute(&quot;cf-hash&quot;))return t[e]}();if(t&amp;&amp;t.previousSibling){var e,r,n,i,c=t.previousSibling,a=c.getAttribute(&quot;data-cfemail&quot;);if(a){for(e=&quot;&quot;,r=parseInt(a.substr(0,2),16),n=2;a.length-n;n+=2)i=parseInt(a.substr(n,2),16)^r,e+=String.fromCharCode(i);e=document.createTextNode(e),c.parentNode.replaceChild(e,c)}}}catch(u){}}();/* ]]&gt; */&lt;/script&gt;\nFormat settings, CABAC : Yes\nFormat settings, ReFrames : 4 frames\nCodec ID : V_MPEG4/ISO/AVC\nDuration : 2h 29mn\nBit rate : 2 231 Kbps\nWidth : 1 920 pixels\nHeight : 800 pixels\nDisplay aspect ratio : 2.40:1\nFrame rate mode : Constant\nFrame rate : 23.976 fps\nColor space : YUV\nChroma subsampling : 4:2:0\nBit depth : 8 bits\nScan type : Progressive\nBits/(Pixel*Frame) : 0.061\nStream size : 2.26 GiB (62%)\nTitle : ~SaNRiM~\nWriting library : x264 core 128 r2216 198a7ea\nLanguage : English\nDefault : Yes\nForced : No\n\n\nAudio #1\n\nID : 2\nFormat : AC-3\nFormat/Info : Audio Coding 3\nMode extension : CM (complete main)\nFormat settings, Endianness : Big\nCodec ID : A_AC3\nDuration : 2h 29mn\nBit rate mode : Constant\nBit rate : 640 Kbps\nChannel(s) : 6 channels\nChannel positions : Front: L C R, Side: L R, LFE\nSampling rate : 48.0 KHz\nBit depth : 16 bits\nCompression mode : Lossy\nDelay relative to video : 1s 650ms\nStream size : 686 MiB (18%)\nTitle : ~SaNRiM~\nLanguage : Hindi\nDefault : Yes\nForced : No\n\n\nAudio #2\n\nID : 3\nFormat : AC-3\nFormat/Info : Audio Coding 3\nMode extension : CM (complete main)\nFormat settings, Endianness : Big\nCodec ID : A_AC3\nDuration : 2h 29mn\nBit rate mode : Constant\nBit rate : 640 Kbps\nChannel(s) : 6 channels\nChannel positions : Front: L C R, Side: L R, LFE\nSampling rate : 48.0 KHz\nBit depth : 16 bits\nCompression mode : Lossy\nStream size : 686 MiB (18%)\nTitle : ~SaNRiM~\nLanguage : English\nDefault : No\nForced : No\n\n\n\nScreens\n &lt;a href=&quot;\nhttp://someimage.com/BvUkd5S&quot; rel=&quot;nofollow&quot; target=&quot;_NEW&quot;&gt;\nhttp://someimage.com/BvUkd5S&lt;/a&gt; &lt;a href=&quot;\nhttp://someimage.com/3Fwmb0a&quot; rel=&quot;nofollow&quot; target=&quot;_NEW&quot;&gt;\nhttp://someimage.com/3Fwmb0a&lt;/a&gt; &lt;a href=&quot;\nhttp://someimage.com/ZrPT0HL&quot; rel=&quot;nofollow&quot; target=&quot;_NEW&quot;&gt;\nhttp://someimage.com/ZrPT0HL&lt;/a&gt; &lt;a href=&quot;\nhttp://someimage.com/GeSorJA&quot; rel=&quot;nofollow&quot; target=&quot;_NEW&quot;&gt;\nhttp://someimage.com/GeSorJA&lt;/a&gt; &lt;a href=&quot;\nhttp://someimage.com/XWP1dAA&quot; rel=&quot;nofollow&quot; target=&quot;_NEW&quot;&gt;\nhttp://someimage.com/XWP1dAA&lt;/a&gt; &lt;a href=&quot;\nhttp://someimage.com/hjDGTsg&quot; rel=&quot;nofollow&quot; target=&quot;_NEW&quot;&gt;\nhttp://someimage.com/hjDGTsg&lt;/a&gt; &lt;a href=&quot;\nhttp://someimage.com/unZ1x5V&quot; rel=&quot;nofollow&quot; target=&quot;_NEW&quot;&gt;\nhttp://someimage.com/unZ1x5V&lt;/a&gt; &lt;a href=&quot;\nhttp://someimage.com/CrdBSwU&quot; rel=&quot;nofollow&quot; target=&quot;_NEW&quot;&gt;\nhttp://someimage.com/CrdBSwU&lt;/a&gt; &lt;a href=&quot;\nhttp://someimage.com/dwhroVD&quot; rel=&quot;nofollow&quot; target=&quot;_NEW&quot;&gt;\nhttp://someimage.com/dwhroVD&lt;/a&gt; &lt;a href=&quot;\nhttp://someimage.com/Faf9gTv&quot; rel=&quot;nofollow&quot; target=&quot;_NEW&quot;&gt;\nhttp://someimage.com/Faf9gTv&lt;/a&gt; &lt;a href=&quot;\nhttp://someimage.com/hqajWbH&quot; rel=&quot;nofollow&quot; target=&quot;_NEW&quot;&gt;\nhttp://someimage.com/hqajWbH&lt;/a&gt; &lt;a href=&quot;\nhttp://someimage.com/wumJM1v&quot; rel=&quot;nofollow&quot; target=&quot;_NEW&quot;&gt;\nhttp://someimage.com/wumJM1v&lt;/a&gt; &lt;a href=&quot;\nhttp://someimage.com/Ug4Af2N&quot; rel=&quot;nofollow&quot; target=&quot;_NEW&quot;&gt;\nhttp://someimage.com/Ug4Af2N&lt;/a&gt; &lt;a href=&quot;\nhttp://someimage.com/i4q2Twi&quot; rel=&quot;nofollow&quot; target=&quot;_NEW&quot;&gt;\nhttp://someimage.com/i4q2Twi&lt;/a&gt; &lt;a href=&quot;\nhttp://someimage.com/awW7ORy&quot; rel=&quot;nofollow&quot; target=&quot;_NEW&quot;&gt;\nhttp://someimage.com/awW7ORy&lt;/a&gt; &lt;a href=&quot;\nhttp://someimage.com/W0Qfuxl&quot; rel=&quot;nofollow&quot; target=&quot;_NEW&quot;&gt;\nhttp://someimage.com/W0Qfuxl&lt;/a&gt; &lt;a href=&quot;\nhttp://someimage.com/xVykudi&quot; rel=&quot;nofollow&quot; target=&quot;_NEW&quot;&gt;\nhttp://someimage.com/xVykudi&lt;/a&gt; &lt;a href=&quot;\nhttp://someimage.com/lUox6hl&quot; rel=&quot;nofollow&quot; target=&quot;_NEW&quot;&gt;\nhttp://someimage.com/lUox6hl&lt;/a&gt; &lt;a href=&quot;\nhttp://someimage.com/qyu5HgV&quot; rel=&quot;nofollow&quot; target=&quot;_NEW&quot;&gt;\nhttp://someimage.com/qyu5HgV&lt;/a&gt;\n\n\n\n                   A BIG THANKS TO VDA FOR AUDIO\n\n\n\n                  If you like my work please comment\n                          Any request? Just PM me\n                       Please seed long after download\n                         Thank you &amp; enjoy the best\n                                 ~SaNRiM~\t","torrent":{"xt":"urn:btih:d0bbba51fd401357057d9dd0d1dba7e52c4f35a9","amp;dn":"Transformers+Revenge+of+the+Fallen+%282009%29+1080p+BluRay+%7BDual+Aud","amp;tr":["udp%3A%2F%2Ftracker.openbittorrent.com%3A80","udp%3A%2F%2Fopen.demonii.com%3A1337","udp%3A%2F%2Ftracker.coppersurfer.tk%3A6969","udp%3A%2F%2Fexodus.desync.com%3A6969"],"infoHash":"d0bbba51fd401357057d9dd0d1dba7e52c4f35a9","infoHashBuffer":{"type":"Buffer","data":[208,187,186,81,253,64,19,87,5,125,157,208,209,219,167,229,44,79,53,169]},"announce":[],"urlList":[]}}